<?xml version="1.0" standalone="no"?>
<!DOCTYPE svg PUBLIC "-//W3C//DTD SVG 20010904//EN"
 "http://www.w3.org/TR/2001/REC-SVG-20010904/DTD/svg10.dtd">
<svg version="1.0" xmlns="http://www.w3.org/2000/svg"
 width="1600.000000pt" height="1565.000000pt" viewBox="0 0 1600.000000 1565.000000"
 preserveAspectRatio="xMidYMid meet">

<g transform="translate(0.000000,1565.000000) scale(0.100000,-0.100000)"
fill="#000000" stroke="none">
<path d="M0 7825 l0 -7825 8000 0 8000 0 0 7825 0 7825 -8000 0 -8000 0 0
-7825z m11583 4515 c122 -32 209 -83 307 -180 129 -128 185 -248 197 -425 14
-207 -52 -381 -200 -527 -135 -132 -276 -188 -478 -188 -110 0 -175 13 -264
55 -293 135 -449 449 -381 765 38 173 162 338 330 437 133 78 334 104 489 63z
m-4708 -2204 c612 -82 1146 -345 1575 -777 384 -386 646 -871 750 -1384 55
-271 53 -219 57 -1654 3 -1207 2 -1339 -13 -1389 -25 -87 -59 -146 -124 -215
-152 -163 -407 -205 -617 -102 -88 43 -176 127 -220 210 -49 93 -63 184 -63
410 0 107 -2 195 -5 195 -3 0 -20 -17 -38 -37 -208 -244 -543 -499 -824 -629
-238 -110 -445 -170 -725 -211 -231 -33 -717 -19 -888 27 -19 5 -72 19 -118
30 -180 44 -433 142 -544 210 -26 17 -51 30 -54 30 -9 0 -199 123 -259 169
-382 289 -688 686 -868 1126 -130 319 -195 615 -218 996 -24 412 24 798 143
1154 137 406 363 766 677 1075 130 128 154 149 238 211 32 24 60 46 63 49 8
10 201 135 265 173 80 47 215 113 295 143 36 14 85 34 110 44 44 17 120 42
230 73 91 26 248 56 401 77 179 23 583 22 774 -4z m4690 -31 c94 -24 163 -63
229 -129 34 -33 74 -86 88 -116 61 -124 58 18 58 -2519 0 -2261 0 -2320 -19
-2394 -11 -41 -29 -93 -40 -115 -28 -54 -124 -157 -176 -187 -153 -90 -365
-98 -532 -19 -69 33 -169 130 -211 207 -66 117 -62 -52 -62 2517 0 2071 2
2343 15 2395 60 232 250 373 505 374 47 1 113 -6 145 -14z m-5023 -6785 c44
-13 58 -34 58 -89 0 -36 -4 -44 -32 -62 -25 -15 -45 -19 -81 -16 -57 5 -76 20
-84 70 -9 57 25 94 97 106 3 1 22 -4 42 -9z m1220 0 c100 -28 86 -153 -19
-167 -81 -11 -133 37 -118 106 7 34 22 49 62 61 38 11 33 11 75 0z m4036 -23
c29 -27 30 -89 2 -117 -37 -37 -122 -39 -161 -4 -28 25 -26 94 4 121 39 37
114 37 155 0z m-6878 -423 l0 -384 -85 0 -85 0 0 385 0 384 78 3 c42 2 80 2
85 0 4 -2 7 -176 7 -388z m6508 244 l3 -68 55 0 55 0 -3 -77 -3 -78 -52 -3
-53 -3 0 -200 0 -199 -85 0 -85 0 0 199 0 200 -47 3 -48 3 -3 77 -3 77 48 3
48 3 3 55 c1 30 4 60 7 67 2 8 30 11 82 10 l78 -2 3 -67z m-8765 -87 c55 -29
56 -29 59 -8 3 20 10 22 86 25 52 2 82 -1 82 -8 0 -5 0 -127 0 -270 0 -143 0
-264 0 -270 0 -6 -35 -10 -85 -10 -84 0 -85 0 -85 24 l0 25 -56 -30 c-99 -52
-190 -37 -271 46 -61 63 -77 107 -77 215 0 97 15 146 61 199 77 90 187 114
286 62z m710 9 c100 -38 167 -139 167 -255 l0 -55 -185 0 c-102 0 -185 -3
-185 -6 0 -22 40 -66 72 -79 52 -21 101 -19 149 6 22 11 44 19 49 17 5 -2 25
-25 44 -52 42 -59 39 -65 -44 -105 -48 -23 -68 -26 -150 -26 -83 1 -101 4
-146 27 -95 50 -144 133 -145 246 -1 86 13 138 50 189 71 99 206 137 324 93z
m653 9 c5 -9 -31 -174 -42 -187 -1 -2 -19 1 -40 7 -30 8 -44 7 -71 -6 -55 -26
-63 -53 -63 -223 l0 -150 -85 0 -85 0 0 280 0 280 80 0 80 0 0 -35 c0 -19 2
-35 5 -35 3 0 16 10 30 23 14 12 40 30 58 40 35 19 122 23 133 6z m411 -2 c61
-16 132 -67 166 -120 14 -21 30 -66 36 -100 23 -120 -21 -233 -113 -294 -63
-43 -116 -56 -202 -51 -117 8 -208 69 -255 172 -29 64 -26 178 7 244 25 50 80
104 134 132 59 31 147 37 227 17z m1007 -12 c57 -24 130 -102 149 -160 21 -61
22 -158 1 -218 -22 -65 -103 -138 -179 -162 -118 -37 -246 -6 -326 78 -44 46
-79 134 -79 200 0 86 70 205 145 245 85 45 206 52 289 17z m610 -8 c47 -26 56
-25 56 5 0 16 9 18 81 18 l80 0 -3 -307 c-3 -293 -4 -310 -25 -348 -60 -112
-190 -163 -346 -136 -80 14 -167 49 -167 68 0 7 12 36 26 64 19 38 30 50 42
46 9 -3 44 -15 77 -27 53 -19 66 -20 112 -10 58 13 103 54 103 95 0 13 3 31 7
41 5 13 -4 11 -42 -12 -41 -23 -60 -28 -114 -28 -85 1 -145 28 -198 88 -51 58
-68 120 -60 221 8 113 59 189 157 235 60 28 150 23 214 -13z m1058 9 c21 -9
53 -30 73 -47 39 -35 41 -26 -28 -109 -24 -28 -31 -32 -45 -22 -81 59 -151 62
-205 10 -30 -28 -32 -35 -32 -96 0 -73 14 -100 67 -128 49 -26 122 -11 167 34
16 15 15 16 89 -72 22 -27 23 -29 6 -47 -9 -10 -42 -31 -73 -47 -49 -23 -68
-27 -146 -27 -73 0 -98 4 -131 22 -127 68 -187 224 -138 365 27 80 110 159
188 179 45 12 165 3 208 -15z m1282 0 c14 -8 37 -32 53 -52 l28 -37 3 -229 3
-228 -85 0 -86 0 0 185 c0 184 0 186 -25 210 -35 36 -85 34 -124 -6 l-31 -31
0 -179 0 -179 -85 0 -85 0 0 280 0 280 80 0 c79 0 80 0 80 -25 0 -26 23 -35
36 -14 3 6 25 20 48 30 49 24 151 21 190 -5z m641 5 c92 -42 105 -85 105 -347
l0 -204 -85 0 -85 0 0 185 c0 184 0 186 -25 210 -35 36 -88 34 -126 -4 l-29
-29 0 -181 0 -181 -85 0 c-69 0 -85 3 -85 15 0 8 0 130 0 270 0 140 0 260 0
265 0 6 33 10 80 10 78 0 80 -1 80 -24 0 -32 14 -40 31 -19 41 48 155 66 224
34z m606 2 c69 -22 162 -110 178 -169 18 -64 13 -183 -9 -232 -57 -126 -224
-191 -375 -147 -46 13 -69 28 -114 73 -64 64 -81 106 -81 196 0 100 17 143 80
206 43 43 69 60 111 72 72 22 145 22 210 1z m1214 -16 l40 -27 5 22 c5 21 12
23 88 26 l82 3 0 -281 0 -280 -85 0 c-84 0 -85 0 -85 24 l0 25 -56 -30 c-121
-63 -254 -16 -321 115 -24 45 -27 63 -27 146 0 86 2 100 28 147 56 101 128
145 231 140 46 -2 69 -9 100 -30z m1492 5 c113 -58 163 -139 163 -266 0 -97
-23 -149 -93 -212 -79 -71 -192 -92 -307 -58 -78 23 -162 109 -180 183 -16 66
-9 175 14 218 37 72 103 127 186 154 46 15 171 4 217 -19z m688 9 c92 -42 105
-85 105 -347 l0 -204 -85 0 -85 0 0 185 c0 184 0 186 -25 210 -33 34 -84 33
-124 -1 l-31 -26 0 -184 0 -185 -87 3 -88 3 0 275 0 275 83 3 82 3 0 -31 c0
-34 11 -38 31 -13 41 49 153 67 224 34z m573 -16 c89 -40 92 -45 42 -104 l-42
-50 -56 30 c-62 33 -118 38 -137 12 -21 -29 0 -50 72 -73 162 -53 203 -88 203
-172 0 -66 -28 -116 -88 -153 -44 -28 -53 -30 -147 -30 -89 1 -105 4 -150 28
-62 33 -88 53 -84 64 2 5 25 28 51 52 48 44 58 45 88 10 23 -27 140 -38 160
-14 26 31 3 51 -93 79 -141 42 -187 88 -187 184 0 105 101 176 240 169 44 -3
86 -13 128 -32z m-7018 -255 l0 -281 -87 3 -88 3 -3 265 c-1 146 0 270 3 277
3 9 30 13 90 13 l85 0 0 -280z m1220 0 l0 -280 -85 0 -85 0 0 280 0 280 85 0
85 0 0 -280z m2261 215 c43 -142 93 -279 97 -265 3 8 20 58 39 110 19 52 42
122 51 155 l17 60 84 3 c47 2 90 1 97 -2 15 -6 10 -21 -57 -164 -22 -46 -39
-86 -39 -88 0 -3 -13 -33 -90 -207 l-44 -98 -69 3 -69 3 -40 95 c-21 52 -57
138 -79 190 -22 52 -52 122 -65 155 -14 33 -29 68 -35 77 -19 36 -11 39 88 36
l96 -3 18 -60z m1730 -215 l0 -275 -85 -3 -86 -3 0 274 c0 150 3 277 7 281 4
4 42 5 86 4 l78 -3 0 -275z"/>
<path d="M6255 9231 c-626 -74 -1167 -483 -1422 -1075 -113 -264 -158 -493
-158 -811 0 -261 23 -417 95 -636 124 -379 341 -687 640 -908 52 -39 100 -74
105 -78 52 -41 270 -144 386 -183 140 -47 257 -69 427 -82 284 -21 565 18 803
111 508 199 904 649 1057 1201 57 206 67 288 67 575 0 242 -3 282 -23 385 -40
199 -86 345 -158 497 -33 71 -140 255 -169 291 -184 230 -284 325 -470 447
-174 114 -376 197 -590 241 -98 21 -156 26 -320 29 -110 2 -231 0 -270 -4z"/>
<path d="M2526 2875 c-116 -115 15 -317 145 -224 36 25 62 93 54 139 -14 77
-61 120 -130 120 -26 0 -43 -9 -69 -35z"/>
<path d="M3203 2884 c-58 -45 -46 -54 72 -54 68 0 105 4 105 11 0 6 -13 24
-29 40 -39 39 -101 40 -148 3z"/>
<path d="M4296 2895 c-37 -20 -53 -41 -66 -87 -12 -41 1 -111 23 -132 52 -51
105 -59 158 -23 43 29 59 60 59 117 0 102 -91 168 -174 125z"/>
<path d="M5265 2898 c-48 -26 -69 -60 -72 -117 -4 -66 9 -96 56 -128 64 -43
141 -21 175 51 22 46 20 91 -5 136 -35 61 -102 87 -154 58z"/>
<path d="M5925 2901 c-11 -5 -31 -21 -45 -36 -22 -23 -25 -36 -25 -96 0 -64 2
-71 31 -100 68 -68 181 -42 205 46 28 100 -17 184 -102 191 -24 2 -53 0 -64
-5z"/>
<path d="M9480 2892 c-87 -43 -92 -190 -7 -243 42 -26 108 -21 142 11 67 63
52 195 -26 236 -37 19 -66 18 -109 -4z"/>
<path d="M10733 2900 c-39 -16 -63 -68 -63 -138 0 -59 2 -66 34 -98 28 -28 41
-34 78 -34 64 0 108 39 115 102 10 85 -10 138 -64 166 -25 14 -69 15 -100 2z"/>
<path d="M12162 2893 c-38 -18 -72 -77 -72 -124 0 -75 60 -139 131 -139 45 0
104 50 114 98 16 75 -19 149 -82 173 -34 13 -53 11 -91 -8z"/>
</g>
</svg>
